# xmcd
#
# Track frame offsets: 
#        150
#        14987
#        28479
#        46762
#        62287
#        70879
#        86823
#        102719
#        116394
#        135394
#        154114
#        171599
#        191907
#        208158
#        227249
#        246210
#
# Disc length: 3526 seconds
#
# Revision: 0
# Processed by: cddbd v1.5.2PL0 Copyright (c) Steve Scherf et al.
# Submitted via: ExactAudioCopyFreeDBPlugin 1.0
#
DISCID=ef0dc410
DTITLE=DJ Format - Statement of Intent
DYEAR=2012
DGENRE=Hip-Hop
TTITLE0=Statement of Intent
TTITLE1=Spaceship Earth
TTITLE2=Copper Canyons
TTITLE3=Beyond Disco
TTITLE4=A Quick Ego Trip
TTITLE5=Dope Pusher
TTITLE6=Battle of the Planets
TTITLE7=Terror
TTITLE8=Notes in Quotation
TTITLE9=Live at the Place To Be
TTITLE10=Horse Power
TTITLE11=Mayor of a Ghost Town
TTITLE12=Remember...
TTITLE13=Mr DJ
TTITLE14=The Long Goodbye
TTITLE15=Here Comes the Dope Pusher!
EXTD=
EXTT0=
EXTT1=
EXTT2=
EXTT3=
EXTT4=
EXTT5=
EXTT6=
EXTT7=
EXTT8=
EXTT9=
EXTT10=
EXTT11=
EXTT12=
EXTT13=
EXTT14=
EXTT15=
PLAYORDER=
